<svg width="100" height="30" viewBox="0 0 100 30" fill="none" xmlns="http://www.w3.org/2000/svg">
<path d="M57.5867 1.01393V3.28721C57.5929 3.43966 57.6586 3.5836 57.7698 3.68811C57.8809 3.79262 58.0286 3.84936 58.1812 3.84614H63.4615L57.3776 12.5524C56.993 13.112 56.993 13.7411 56.993 14.0907V16.3982C56.993 16.7479 57.3774 17.0974 57.727 16.9226C61.1535 15.0695 65.3143 15.2443 68.4262 16.8876C68.8106 17.0972 69.1603 16.7129 69.1603 16.3632V13.9506C69.1251 13.636 69.0204 13.2863 68.6358 13.0765C66.8878 12.0978 64.8247 11.8181 62.8666 11.8531L68.1112 4.37061C68.6008 3.67104 68.8805 3.25168 68.8805 2.937V1.01393C68.8744 0.86139 68.8088 0.717315 68.6976 0.612691C68.5864 0.508067 68.4386 0.451252 68.286 0.454465H58.1462C58.0717 0.450494 57.9972 0.462245 57.9275 0.488956C57.8578 0.515667 57.7945 0.556738 57.7418 0.609503C57.689 0.662268 57.6479 0.725545 57.6212 0.795221C57.5945 0.864897 57.5827 0.939415 57.5867 1.01393Z" fill="#C4C4C4"/>
<path d="M17.5521 17.3774H20.629C20.7801 17.3828 20.9278 17.3323 21.0439 17.2356C21.16 17.1388 21.2364 17.0026 21.2584 16.8531V8.46143C21.2584 8.40663 21.2583 8.35126 21.2582 8.29539C21.2562 6.46158 21.2536 4.09082 23.3912 4.09082C25.343 4.09082 25.3107 6.21665 25.2849 7.91632C25.2821 8.10439 25.2793 8.28725 25.2793 8.46143V16.8531C25.2793 17.1329 25.5241 17.3775 25.8388 17.4125H28.9156C29.0683 17.4157 29.216 17.3589 29.3272 17.2543C29.4383 17.1497 29.504 17.0056 29.51 16.8531V8.46143C29.51 8.38132 29.5097 8.29795 29.5095 8.21197C29.5066 7.32228 29.5027 6.15281 29.7897 5.41954C29.9388 5.04667 30.1936 4.72554 30.5229 4.49567C30.8522 4.26581 31.2415 4.13725 31.6429 4.12582C32.552 4.12582 33.2164 4.4405 33.461 5.48943C33.5707 5.98331 33.5513 7.12316 33.5379 7.91205C33.5342 8.12844 33.5309 8.31842 33.5309 8.46143V16.8531C33.5309 17.1329 33.7757 17.3775 34.0904 17.4125H37.1327C37.2853 17.4157 37.4331 17.3589 37.5442 17.2543C37.6554 17.1497 37.721 17.0056 37.7271 16.8531V6.85314C37.7271 6.59834 37.7317 6.3389 37.7364 6.07746C37.7631 4.581 37.791 3.01919 36.9578 1.88818C36.0837 0.664356 34.6851 0.139893 33.3914 0.139893C31.573 0.139893 29.8595 1.08393 29.1254 3.07689C28.2862 1.08393 27.0625 0.139893 25.1394 0.139893C23.2513 0.139893 21.8175 1.08393 21.0835 3.07689H21.0136V1.01393C21.0023 0.872574 20.9387 0.740503 20.8353 0.64352C20.7318 0.546537 20.5959 0.491607 20.4541 0.489463H17.587C17.4344 0.486277 17.2866 0.543107 17.1755 0.647728C17.0643 0.752349 16.9987 0.896407 16.9926 1.04893V16.853C17.0154 16.9897 17.0825 17.1151 17.1836 17.2099C17.2847 17.3046 17.4142 17.3635 17.5521 17.3774Z" fill="#C4C4C4"/>
<path fill-rule="evenodd" clip-rule="evenodd" d="M84.6845 9.05589C84.6845 4.05593 82.202 0.139893 77.6216 0.139893C73.1461 0.139893 70.6635 3.98593 70.6985 8.916C70.6985 13.8111 73.1461 17.7271 77.6216 17.7271C81.9573 17.7271 84.6845 13.8811 84.6845 9.05589ZM75.209 8.42653C75.209 6.50346 75.3488 3.39157 77.6216 3.39157C78.6006 3.39157 79.2999 3.81103 79.6495 4.92996C80.0342 6.18878 80.1041 7.79707 80.1041 9.12578C80.1041 11.1537 79.9643 14.4754 77.5867 14.4754C75.2075 14.4754 75.2085 10.4634 75.209 8.50789L75.209 8.42653Z" fill="#C4C4C4"/>
<path d="M87.5166 17.3774H90.5935C90.7483 17.376 90.8973 17.3189 91.013 17.216C91.1287 17.1132 91.2032 16.9719 91.2228 16.8183V8.28643C91.2228 7.2025 91.2925 6.25815 91.7121 5.27943C92.0618 4.51007 92.7613 4.02071 93.4953 4.02071C95.4568 4.02071 95.437 6.15004 95.4211 7.85204C95.4197 8.00074 95.4184 8.14617 95.4184 8.28664V16.8878C95.4534 17.1324 95.6982 17.3421 95.9778 17.3771H99.0549C99.197 17.3834 99.3363 17.3369 99.4461 17.2465C99.5559 17.1562 99.6283 17.0284 99.6494 16.8878V6.92282C99.6494 5.38432 99.6494 3.25147 98.8453 1.99275C97.9711 0.628931 96.6075 0.139571 95.2439 0.139571C93.111 0.139571 91.9222 1.1535 91.0481 3.32136H90.9782V0.908823C90.9471 0.782503 90.8756 0.669774 90.7747 0.587738C90.6737 0.505702 90.5487 0.458835 90.4187 0.454251H87.5516C87.406 0.455358 87.2656 0.509031 87.1564 0.605396C87.0472 0.701761 86.9764 0.834333 86.9572 0.978714V16.818C86.9572 17.0977 87.2019 17.3424 87.5166 17.3774Z" fill="#C4C4C4"/>
<path fill-rule="evenodd" clip-rule="evenodd" d="M52.2662 17.4956C52.3979 17.4831 52.5223 17.4295 52.622 17.3425L52.6231 17.3424C52.8466 17.1562 53.1317 16.9128 53.4362 16.6527C53.9896 16.1802 54.6072 15.6527 55.0357 15.3145C55.2804 15.1397 55.2455 14.79 55.0357 14.5103C54.9683 14.4134 54.9004 14.3191 54.8331 14.2256C54.3416 13.5429 53.8819 12.9041 53.8819 11.6432V6.85304C53.8819 6.69295 53.8827 6.53374 53.8836 6.37556C53.8937 4.53042 53.903 2.82657 52.5182 1.53839C51.3294 0.384572 49.3715 0 47.868 0C44.931 0 41.6792 1.08393 40.9799 4.72029C40.91 5.10496 41.1898 5.27975 41.4345 5.34964L44.4065 5.66432C44.6863 5.66432 44.8611 5.38454 44.931 5.10486C45.1757 3.84604 46.2247 3.25168 47.4135 3.25168C48.0423 3.25168 48.7417 3.49636 49.1262 4.05582C49.528 4.61225 49.52 5.36019 49.5127 6.03334C49.5118 6.12157 49.5108 6.20851 49.5108 6.29357V6.67814C49.2209 6.71226 48.9162 6.74452 48.602 6.77781C46.9836 6.9492 45.1121 7.14739 43.7067 7.76207C41.7831 8.60132 40.4195 10.2796 40.4195 12.797C40.4195 15.9788 42.4475 17.5872 45.0349 17.5872C47.2026 17.5872 48.4265 17.0622 50.1048 15.3495C50.1865 15.4669 50.2607 15.5761 50.3311 15.6797C50.7429 16.2852 51.022 16.6958 51.8879 17.4124C52.0022 17.479 52.1345 17.5081 52.2662 17.4956ZM49.5103 10.0129C49.5102 9.95079 49.5101 9.88821 49.5101 9.82514V9.16132C47.2723 9.16132 44.9297 9.65089 44.9297 12.2732C44.9297 13.6019 45.6289 14.511 46.8178 14.511C47.6919 14.511 48.4613 13.9865 48.9506 13.1124C49.5135 12.0854 49.512 11.1217 49.5103 10.0129Z" fill="#C4C4C4"/>
<path fill-rule="evenodd" clip-rule="evenodd" d="M11.8467 17.4956C11.9784 17.4831 12.1028 17.4295 12.2025 17.3425L12.2036 17.3424C12.4271 17.1562 12.7121 16.9128 13.0167 16.6527C13.5701 16.1802 14.1877 15.6528 14.6162 15.3145C14.8609 15.1397 14.826 14.79 14.6162 14.5103C14.5488 14.4134 14.4809 14.3191 14.4136 14.2256C13.9221 13.5429 13.4624 12.9041 13.4624 11.6432V6.85304C13.4624 6.69296 13.4632 6.53374 13.4641 6.37556C13.4742 4.53042 13.4835 2.82657 12.0987 1.53839C10.9099 0.384572 8.95196 0 7.44846 0C4.51146 0 1.25967 1.08393 0.560422 4.72029C0.490529 5.10496 0.770314 5.27975 1.01499 5.34964L3.98699 5.66432C4.26678 5.66432 4.44157 5.38454 4.51146 5.10486C4.75624 3.84604 5.80517 3.25168 6.99399 3.25168C7.62282 3.25168 8.32218 3.49636 8.70675 4.05582C9.10855 4.61225 9.10048 5.36019 9.09321 6.03335C9.09226 6.12157 9.09132 6.20852 9.09132 6.29357V6.67814C8.80142 6.71226 8.49671 6.74452 8.18246 6.77781C6.56408 6.9492 4.6926 7.14739 3.28721 7.76207C1.36361 8.60132 0 10.2796 0 12.797C0 15.9788 2.02796 17.5872 4.61539 17.5872C6.78314 17.5872 8.00697 17.0622 9.68525 15.3495C9.76699 15.4669 9.84126 15.5761 9.91165 15.6797C10.3234 16.2852 10.6025 16.6958 11.4684 17.4124C11.5827 17.479 11.715 17.5081 11.8467 17.4956ZM9.12577 10.0129C9.12567 9.9508 9.12557 9.88822 9.12557 9.82514V9.16132C6.88782 9.16132 4.54518 9.65089 4.54518 12.2732C4.54518 13.6019 5.24443 14.511 6.43325 14.511C7.3074 14.511 8.07675 13.9865 8.56611 13.1124C9.12903 12.0854 9.12752 11.1218 9.12577 10.0129Z" fill="#C4C4C4"/>
<path d="M64.2296 20.6991C63.4956 19.7551 59.3345 20.2445 57.4814 20.4893C56.922 20.5592 56.8171 20.0698 57.3416 19.7201C60.6632 17.3774 66.0828 18.0767 66.7121 18.8459C67.3415 19.6152 66.5373 25.0693 63.4249 27.657C62.9356 28.0416 62.4809 27.8318 62.6909 27.3074L62.7275 27.2159C63.4435 25.4273 64.9513 21.6611 64.2296 20.6991Z" fill="#C4C4C4"/>
<path d="M61.8172 23.4615C56.048 27.7275 47.6565 30 40.4188 30C30.2789 30 21.1881 26.2588 14.2651 20.0351C13.7406 19.5457 14.1952 18.8813 14.8595 19.2658C22.307 23.6014 31.5028 26.1889 41.0131 26.1889C47.4117 26.1889 54.4745 24.8603 60.978 22.0979C61.9567 21.7134 62.7613 22.7623 61.8172 23.4615Z" fill="#C4C4C4"/>
</svg>
