<svg width="113" height="38" viewBox="0 0 113 38" fill="none" xmlns="http://www.w3.org/2000/svg">
<path fill-rule="evenodd" clip-rule="evenodd" d="M10.4492 3.80011C8.87383 3.80127 7.59882 5.07722 7.59998 6.64949C7.59882 8.22177 8.87499 9.49772 10.4504 9.49888H13.3008V6.65066C13.302 5.07838 12.0258 3.80243 10.4492 3.80011C10.4504 3.80011 10.4504 3.80011 10.4492 3.80011V3.80011ZM10.4492 11.4H2.85043C1.27501 11.4012 -0.00116121 12.6771 3.18214e-06 14.2494C-0.0023256 15.8217 1.27385 17.0976 2.84927 17.0999H10.4492C12.0247 17.0988 13.3008 15.8228 13.2997 14.2506C13.3008 12.6771 12.0247 11.4012 10.4492 11.4Z" fill="#C4C4C4"/>
<path fill-rule="evenodd" clip-rule="evenodd" d="M28.4996 14.2493C28.5007 12.6771 27.2246 11.4011 25.6491 11.4C24.0737 11.4011 22.7975 12.6771 22.7987 14.2493V17.0999H25.6491C27.2246 17.0987 28.5007 15.8228 28.4996 14.2493ZM20.8996 14.2493V6.64943C20.9008 5.07832 19.6257 3.80237 18.0503 3.80005C16.4749 3.80121 15.1987 5.07716 15.1999 6.64943V14.2493C15.1976 15.8216 16.4737 17.0976 18.0492 17.0999C19.6246 17.0987 20.9008 15.8228 20.8996 14.2493Z" fill="#C4C4C4"/>
<path fill-rule="evenodd" clip-rule="evenodd" d="M18.0492 32.2996C19.6246 32.2984 20.9008 31.0225 20.8996 29.4502C20.9008 27.8779 19.6246 26.602 18.0492 26.6008H15.1987V29.4502C15.1976 31.0213 16.4737 32.2973 18.0492 32.2996ZM18.0492 24.6985H25.6491C27.2246 24.6974 28.5007 23.4214 28.4996 21.8491C28.5019 20.2769 27.2257 19.0009 25.6503 18.9986H18.0503C16.4749 18.9998 15.1987 20.2757 15.1999 21.848C15.1987 23.4214 16.4737 24.6974 18.0492 24.6985Z" fill="#C4C4C4"/>
<path fill-rule="evenodd" clip-rule="evenodd" d="M0.000244937 21.8492C-0.000919454 23.4215 1.27525 24.6974 2.85067 24.6986C4.42609 24.6974 5.70227 23.4215 5.7011 21.8492V18.9998H2.85067C1.27525 19.001 -0.000919454 20.2769 0.000244937 21.8492ZM7.60022 21.8492V29.4491C7.59789 31.0214 8.87407 32.2973 10.4495 32.2997C12.0249 32.2985 13.3011 31.0226 13.2999 29.4503V21.8515C13.3022 20.2793 12.0261 19.0033 10.4507 19.001C8.87407 19.001 7.59906 20.2769 7.60022 21.8492C7.60022 21.8492 7.60022 21.8504 7.60022 21.8492Z" fill="#C4C4C4"/>
<path d="M36.8715 24.4375L39.573 22.8641C40.7605 24.6057 42.3043 25.4766 44.2043 25.4766C45.1345 25.4766 45.8668 25.2984 46.4011 24.9422C46.9553 24.5662 47.2324 24.0714 47.2324 23.4578C47.2324 22.963 47.0048 22.5276 46.5496 22.1516C46.1142 21.7755 45.6491 21.4985 45.1543 21.3203C44.6595 21.1224 43.9173 20.8651 42.9277 20.5485C42.7496 20.4891 42.6209 20.4495 42.5418 20.4297C41.8293 20.1922 41.2256 19.9646 40.7308 19.7469C40.2559 19.5094 39.7512 19.2026 39.2168 18.8266C38.6824 18.4307 38.2767 17.9459 37.9996 17.3719C37.7225 16.7781 37.584 16.0953 37.584 15.3235C37.584 13.8193 38.2173 12.612 39.484 11.7016C40.7506 10.7912 42.3241 10.336 44.2043 10.336C45.6095 10.336 46.9355 10.712 48.1824 11.4641C49.4293 12.1964 50.3595 13.1365 50.973 14.2844L48.4793 15.7985C47.3116 14.1953 45.8965 13.3938 44.234 13.3938C43.3236 13.3938 42.6209 13.5818 42.1262 13.9578C41.6512 14.3141 41.4137 14.7891 41.4137 15.3828C41.4137 15.8776 41.6215 16.3229 42.0371 16.7188C42.4725 17.0948 42.9178 17.3719 43.373 17.55C43.8282 17.7281 44.4715 17.9558 45.3027 18.2328C45.5204 18.2922 45.6788 18.3417 45.7777 18.3813C49.3006 19.5094 51.0621 21.2115 51.0621 23.4875C51.0621 24.8927 50.4683 26.0901 49.2808 27.0797C48.1131 28.0495 46.4506 28.5344 44.2933 28.5344C42.6308 28.5344 41.1465 28.1682 39.8402 27.4359C38.5538 26.7036 37.5642 25.7042 36.8715 24.4375ZM54.3277 28V3.74536H58.0683V28H54.3277ZM65.2527 23.1906C65.2527 23.824 65.5001 24.3583 65.9949 24.7938C66.5094 25.2094 67.1824 25.4172 68.0136 25.4172C69.2011 25.4172 70.2105 25.0214 71.0417 24.2297C71.8928 23.438 72.3183 22.399 72.3183 21.1125V19.5391C71.4079 19.7568 70.3094 19.9646 69.023 20.1625C66.5094 20.5583 65.2527 21.5677 65.2527 23.1906ZM61.4527 23.5172C61.4527 20.2912 63.8475 18.3219 68.637 17.6094C70.3787 17.3521 71.6058 17.1146 72.3183 16.8969V15.9766C72.3183 15.1453 72.0214 14.4922 71.4277 14.0172C70.8339 13.5422 70.0422 13.3047 69.0527 13.3047C67.1725 13.3047 65.5495 14.0766 64.1839 15.6203L61.898 13.661C62.7886 12.612 63.8475 11.8006 65.0745 11.2266C66.3214 10.6328 67.6277 10.336 68.9933 10.336C71.5464 10.336 73.3672 10.9594 74.4558 12.2063C75.5443 13.4334 76.0886 15.1552 76.0886 17.3719V28H72.437V25.8625C72.0808 26.5948 71.4573 27.2281 70.5667 27.7625C69.6959 28.2771 68.6667 28.5344 67.4792 28.5344C65.599 28.5344 64.1245 28.0693 63.0558 27.1391C61.9871 26.2089 61.4527 25.0016 61.4527 23.5172ZM78.9683 19.45C78.9683 16.699 79.7006 14.4922 81.1651 12.8297C82.6495 11.1672 84.5594 10.336 86.8948 10.336C88.5969 10.336 90.0318 10.8506 91.1995 11.8797C92.3672 12.9089 93.0995 14.0865 93.3964 15.4125L90.1901 16.3032C89.9526 15.5511 89.5469 14.9078 88.9729 14.3735C88.399 13.8193 87.7162 13.5422 86.9245 13.5422C85.638 13.5422 84.6287 14.1063 83.8964 15.2344C83.1839 16.3625 82.8276 17.7677 82.8276 19.45C82.8276 21.3104 83.2136 22.7552 83.9854 23.7844C84.7573 24.8135 85.737 25.3281 86.9245 25.3281C87.7953 25.3281 88.5573 25.0313 89.2104 24.4375C89.8833 23.824 90.3485 23.1313 90.6057 22.3594L93.812 23.2797C93.4359 24.6651 92.6146 25.8922 91.3479 26.9609C90.0813 28.0099 88.5969 28.5344 86.8948 28.5344C84.5594 28.5344 82.6495 27.713 81.1651 26.0703C79.7006 24.4078 78.9683 22.2011 78.9683 19.45ZM96.6323 28V3.74536H100.373V17.6985L106.459 10.8703H111.179L104.856 17.8469L111.565 28H107.171L102.421 20.4891L100.373 22.7453V28H96.6323Z" fill="#C4C4C4"/>
</svg>
