<svg width="149" height="30" viewBox="0 0 149 30" fill="none" xmlns="http://www.w3.org/2000/svg">
<path d="M42.6508 16.2567C43.4131 15.5768 43.9282 14.5672 44.2167 13.2073C44.2991 12.7334 44.3609 12.2183 44.3609 11.6826C44.3609 11.0851 44.2373 10.4463 43.99 9.80758C43.681 9.00401 43.2689 8.57132 42.7744 8.4683C42.0326 8.32407 41.3115 8.73616 40.6315 9.74577C40.0752 10.5287 39.7249 11.3529 39.5395 12.1977C39.4365 12.6716 39.3953 13.1867 39.3953 13.7018C39.3953 14.2993 39.5189 14.9381 39.7661 15.5768C40.0752 16.3804 40.4873 16.8131 40.9818 16.9161C41.4969 17.0191 42.0532 16.7925 42.6508 16.2567Z" fill="#C4C4C4"/>
<path d="M31.2981 13.2073C31.0097 14.5672 30.4946 15.5768 29.7322 16.2567C29.1347 16.7925 28.5784 17.0191 28.0633 16.9161C27.5688 16.8131 27.1567 16.3804 26.8476 15.5768C26.6004 14.9381 26.4767 14.2993 26.4767 13.7018C26.4767 13.1867 26.518 12.6716 26.621 12.1977C26.8064 11.3529 27.1567 10.5287 27.713 9.74577C28.3929 8.73616 29.1141 8.32407 29.8559 8.4683C30.3504 8.57132 30.7624 9.00401 31.0715 9.80758C31.3188 10.4463 31.4424 11.0851 31.4424 11.6826C31.4424 12.2183 31.4012 12.7334 31.2981 13.2073Z" fill="#C4C4C4"/>
<path fill-rule="evenodd" clip-rule="evenodd" d="M4.67733 0H45.7006C48.2967 0 50.3983 2.10164 50.3983 4.69778V20.3571C50.3983 22.9532 48.2967 25.0549 45.7006 25.0549H30.9891L33.0083 29.9999L24.1278 25.0549H4.69794C2.10179 25.0549 0.000150218 22.9532 0.000150218 20.3571V4.69778C-0.0204541 2.12224 2.08119 0 4.67733 0ZM2.51391 4.26499C2.80237 3.87351 3.23506 3.66746 3.81198 3.62625C4.8628 3.54383 5.46032 4.03834 5.60455 5.10977C6.24329 9.41607 6.94384 13.063 7.68559 16.0507L12.1979 7.45866C12.61 6.67569 13.1251 6.26361 13.7433 6.2224C14.6499 6.16059 15.2062 6.7375 15.4328 7.95316C15.9479 10.6935 16.6073 13.0218 17.3902 14.9998C17.9259 9.76634 18.8325 5.99575 20.11 3.66746C20.4191 3.09054 20.8724 2.80208 21.4699 2.76087C21.9438 2.71967 22.3765 2.8639 22.768 3.17296C23.1594 3.48203 23.3655 3.8735 23.4067 4.3474C23.4273 4.71828 23.3655 5.02735 23.2006 5.33641C22.3971 6.81993 21.7377 9.31305 21.202 12.7746C20.6869 16.1331 20.5015 18.7498 20.6251 20.6248C20.6663 21.1399 20.5839 21.5932 20.3779 21.9847C20.1306 22.438 19.7597 22.6853 19.2858 22.7265C18.7501 22.7677 18.1938 22.5204 17.6581 21.9641C15.7419 20.0067 14.2172 17.0809 13.1045 13.1867C11.7653 15.824 10.7762 17.802 10.1375 19.1207C8.92185 21.449 7.89164 22.644 7.02625 22.7059C6.46994 22.7471 5.99604 22.2732 5.58395 21.2842C4.53313 18.585 3.39989 13.3721 2.18424 5.64548C2.12243 5.10977 2.22545 4.63587 2.51391 4.26499ZM46.8128 7.4999C46.0711 6.20183 44.979 5.41886 43.5161 5.1098C43.1247 5.02738 42.7538 4.98617 42.4035 4.98617C40.4255 4.98617 38.8183 6.01639 37.5615 8.07682C36.4901 9.82819 35.9543 11.765 35.9543 13.8872C35.9543 15.4738 36.284 16.8337 36.9434 17.9669C37.6851 19.265 38.7771 20.0479 40.24 20.357C40.6315 20.4394 41.0024 20.4806 41.3527 20.4806C43.3513 20.4806 44.9584 19.4504 46.1947 17.39C47.2661 15.618 47.8018 13.6812 47.8018 11.559C47.8018 9.95181 47.4722 8.61253 46.8128 7.4999ZM30.5976 5.1098C32.0399 5.41886 33.1525 6.20183 33.8943 7.4999C34.5536 8.61253 34.8833 9.95181 34.8833 11.559C34.8833 13.6812 34.3476 15.618 33.2762 17.39C32.0399 19.4504 30.4328 20.4806 28.4342 20.4806C28.0839 20.4806 27.713 20.4394 27.3215 20.357C25.8586 20.0479 24.7666 19.265 24.0248 17.9669C23.3655 16.8337 23.0358 15.4738 23.0358 13.8872C23.0358 11.765 23.5715 9.82819 24.643 8.07682C25.8998 6.01639 27.507 4.98617 29.485 4.98617C29.8352 4.98617 30.2061 5.02738 30.5976 5.1098Z" fill="#C4C4C4"/>
<path d="M53.5508 12.507C53.5508 10.4054 54.2307 8.67462 55.6112 7.31474C56.9917 5.95485 58.7225 5.2749 60.8241 5.29551C61.6277 5.29551 62.39 5.37793 63.07 5.56337V8.90127C62.3282 8.69522 61.6483 8.5922 61.0095 8.5922C60.0205 8.5922 59.217 8.96308 58.5576 9.72544C57.9189 10.4672 57.5892 11.4356 57.5892 12.61C57.5892 13.8669 57.9189 14.8559 58.5782 15.5977C59.2376 16.3188 60.103 16.6897 61.195 16.6897C61.7307 16.6897 62.3488 16.5867 63.07 16.3806V19.7185C62.287 19.9452 61.5659 20.0482 60.9271 20.0482C58.7225 20.0482 56.9505 19.3477 55.5906 17.9672C54.2307 16.5867 53.5508 14.7529 53.5508 12.507Z" fill="#C4C4C4"/>
<path fill-rule="evenodd" clip-rule="evenodd" d="M65.4601 7.1705C66.5315 5.91364 68.015 5.2749 69.9106 5.2749C71.9298 5.2749 73.4752 5.91364 74.5672 7.1705C75.6386 8.44797 76.1743 10.2612 76.1743 12.61C76.1743 14.9589 75.6386 16.7927 74.5878 18.0908C73.537 19.3889 72.0329 20.0482 70.0754 20.0482C68.0562 20.0482 66.5109 19.3889 65.4601 18.0908C64.4093 16.7927 63.8735 14.9177 63.8735 12.4658C63.8735 10.1993 64.3887 8.42737 65.4601 7.1705ZM69.9106 16.8545C70.6112 16.8545 71.1675 16.5661 71.5384 15.9892C71.9092 15.4122 72.1153 14.2584 72.1359 12.5688C72.1359 9.82846 71.3941 8.46857 69.9518 8.46857C68.5713 8.46857 67.8914 9.80786 67.8914 12.507C67.8914 14.2584 68.0562 15.4122 68.4065 15.9892C68.7568 16.5661 69.2513 16.8545 69.9106 16.8545Z" fill="#C4C4C4"/>
<path d="M85.6111 8.81885L86.3529 5.66639H91.2567L93.1523 19.6979H89.4023L88.3927 10.0551L86.0438 19.6979H83.4889L81.0369 10.0345L80.0685 19.6979H76.4834L78.276 5.66639H83.0562C83.7361 8.69523 84.2718 11.2914 84.6633 13.4754L85.0754 11.2914C85.2402 10.4466 85.4257 9.62242 85.6111 8.81885Z" fill="#C4C4C4"/>
<path d="M102.775 8.81885L103.516 5.66639H108.399L110.295 19.6979H106.545L105.535 10.0551L103.207 19.6979H100.652L98.2003 10.0345L97.2319 19.6979H93.6468L95.4394 5.66639H100.22C100.9 8.69523 101.435 11.2914 101.827 13.4754L102.239 11.2914C102.404 10.4466 102.589 9.62242 102.775 8.81885Z" fill="#C4C4C4"/>
<path d="M118.537 14.1554H115.178V16.7309H119.073V19.7185H111.387V5.68699H119.052V8.67462H115.178V11.2502H118.537V14.1554Z" fill="#C4C4C4"/>
<path fill-rule="evenodd" clip-rule="evenodd" d="M130.343 9.95209C130.343 10.632 130.137 11.2914 129.746 11.9301C129.354 12.5688 128.777 13.0427 128.056 13.3724L131.085 19.6979H127.088L124.018 13.3106H123.956V19.6979H120.165V5.66639H124.574C126.346 5.66639 127.768 6.05787 128.798 6.82023C129.828 7.58259 130.343 8.63341 130.343 9.95209ZM123.935 8.36555V11.7035C125.604 11.6829 126.449 11.1883 126.449 10.2199C126.449 9.5606 126.263 9.10731 125.872 8.81885C125.48 8.53039 124.842 8.38616 123.935 8.36555Z" fill="#C4C4C4"/>
<path d="M130.508 12.507C130.508 10.4054 131.188 8.67462 132.568 7.31474C133.949 5.95485 135.7 5.2749 137.781 5.29551C138.585 5.29551 139.347 5.37793 140.027 5.56337V8.90127C139.285 8.69522 138.605 8.5922 137.967 8.5922C136.978 8.5922 136.174 8.96308 135.515 9.72544C134.876 10.4672 134.546 11.4356 134.546 12.61C134.546 13.8669 134.876 14.8559 135.535 15.5977C136.195 16.3188 137.06 16.6897 138.152 16.6897C138.688 16.6897 139.306 16.5867 140.027 16.3806V19.7185C139.244 19.9452 138.523 20.0482 137.884 20.0482C135.68 20.0482 133.908 19.3477 132.548 17.9672C131.188 16.5867 130.508 14.7529 130.508 12.507Z" fill="#C4C4C4"/>
<path d="M144.869 14.1348V16.7103H148.784V19.6979H141.099V5.66639H148.763V8.65402H144.869V11.2296H148.228V14.1348H144.869Z" fill="#C4C4C4"/>
</svg>
