<svg width="309" height="95" viewBox="0 0 309 95" fill="none" xmlns="http://www.w3.org/2000/svg">
<path d="M307.697 69.3736C306.944 74.6451 302.186 79.2822 293.752 83.0593C285.359 86.8183 273.539 89.6232 259.115 91.3475C230.278 94.7948 191.204 93.9038 148.741 87.8408C106.277 81.7778 68.5157 71.6983 41.7954 60.3183C28.4301 54.6261 17.8677 48.6255 10.8616 42.6678C3.82191 36.6814 0.551592 30.8979 1.30426 25.6264C2.05694 20.3549 6.81515 15.7177 15.2489 11.9406C23.6423 8.18163 35.462 5.37676 49.8863 3.65242C78.7236 0.20508 117.797 1.09608 160.26 7.15909C202.724 13.2221 240.485 23.3017 267.206 34.6816C280.571 40.3738 291.133 46.3744 298.14 52.3322C305.179 58.3185 308.45 64.1021 307.697 69.3736Z" stroke="#E52525" stroke-width="1.5"/>
</svg>
