<svg width="311" height="83" viewBox="0 0 311 83" fill="none" xmlns="http://www.w3.org/2000/svg">
<path d="M310.25 41.5C310.25 46.825 306.195 52.0882 298.38 57.0194C290.602 61.927 279.298 66.3744 265.262 70.1203C237.201 77.6091 198.394 82.25 155.5 82.25C112.606 82.25 73.7989 77.6091 45.7383 70.1203C31.7026 66.3744 20.3981 61.927 12.6202 57.0194C4.80504 52.0882 0.750061 46.825 0.750061 41.5C0.750061 36.175 4.80504 30.9118 12.6202 25.9806C20.3981 21.073 31.7026 16.6256 45.7383 12.8797C73.7989 5.39088 112.606 0.75 155.5 0.75C198.394 0.75 237.201 5.39088 265.262 12.8797C279.298 16.6256 290.602 21.073 298.38 25.9806C306.195 30.9118 310.25 36.175 310.25 41.5Z" stroke="#FFCA00" stroke-width="1.5"/>
</svg>
