<svg width="57" height="56" viewBox="0 0 57 56" fill="none" xmlns="http://www.w3.org/2000/svg">
<path d="M13.4606 43.6593L33.7767 41.9387C48.5467 40.6879 54.9155 22.6956 44.2826 12.2586C33.6497 1.82161 15.779 8.5239 14.803 23.3147L13.4606 43.6593Z" fill="#EBF2F3"/>
<path fill-rule="evenodd" clip-rule="evenodd" d="M33.3301 24.1718C33.7406 23.8023 34.3729 23.8356 34.7423 24.2461L39.2423 29.2461C39.5846 29.6264 39.5846 30.2037 39.2423 30.584L34.7423 35.584C34.3729 35.9945 33.7406 36.0278 33.3301 35.6583C32.9195 35.2889 32.8863 34.6566 33.2557 34.2461L36.2537 30.915H23.999C23.4467 30.915 22.999 30.4673 22.999 29.915C22.999 29.3628 23.4467 28.915 23.999 28.915H36.2537L33.2557 25.584C32.8863 25.1735 32.9195 24.5412 33.3301 24.1718Z" fill="#001CAF"/>
<path fill-rule="evenodd" clip-rule="evenodd" d="M22.999 23.2722C22.999 19.2089 26.2929 15.915 30.3562 15.915H40.999C45.9696 15.915 49.999 19.9445 49.999 24.915V34.915C49.999 39.8856 45.9696 43.915 40.999 43.915H30.8205C26.5008 43.915 22.999 40.4133 22.999 36.0936C22.999 35.5413 23.4467 35.0936 23.999 35.0936C24.5513 35.0936 24.999 35.5413 24.999 36.0936C24.999 39.3087 27.6054 41.915 30.8205 41.915H40.999C44.865 41.915 47.999 38.781 47.999 34.915V24.915C47.999 21.049 44.865 17.915 40.999 17.915H30.3562C27.3975 17.915 24.999 20.3135 24.999 23.2722C24.999 23.8245 24.5513 24.2722 23.999 24.2722C23.4467 24.2722 22.999 23.8245 22.999 23.2722Z" fill="#111111"/>
</svg>
