<svg width="88" height="89" viewBox="0 0 88 89" fill="none" xmlns="http://www.w3.org/2000/svg">
<path d="M36 87.5H65.5L85.5 54H56L36 87.5Z" stroke="#EBF2F3" stroke-width="2"/>
<path d="M85.5 0H59.5L9.5 87.5H35.5L85.5 0Z" fill="#EBF2F3"/>
<path d="M76 27.8182L81.5 18L87 27.8182L81.5 36L76 27.8182Z" fill="#EBF2F3"/>
<path d="M0 60.2727L5 51L10 60.2727L5 68L0 60.2727Z" fill="#FF6351"/>
<path d="M24 18H10L16.5532 29L24 18Z" fill="#0068FF"/>
<path d="M76 85H54L64.2979 68L76 85Z" fill="#FFAE2B"/>
<path d="M71.3333 56.3333V47H63.722C63.281 45.292 62.609 43.682 61.734 42.198L67.1147 36.8173L60.516 30.2187L55.1353 35.5993C53.6513 34.7243 52.0413 34.0523 50.3333 33.6113V26H41V33.6113C39.292 34.0523 37.682 34.7243 36.198 35.5993L30.8173 30.2187L24.2187 36.8173L29.5993 42.198C28.7243 43.682 28.0523 45.292 27.6113 47H20V56.3333H27.6113C28.0523 58.0413 28.7243 59.6513 29.5993 61.1353L24.2187 66.516L30.8173 73.1147L36.198 67.734C37.6797 68.609 39.292 69.281 41 69.722V77.3333H50.3333V69.722C52.0413 69.281 53.6513 68.609 55.1353 67.734L60.516 73.1147L67.1147 66.516L61.734 61.1353C62.609 59.6537 63.281 58.0413 63.722 56.3333H71.3333Z" fill="#01D8FD"/>
<circle cx="46" cy="52" r="8" fill="white"/>
</svg>
