<svg width="95" height="100" viewBox="0 0 95 100" fill="none" xmlns="http://www.w3.org/2000/svg">
<g filter="url(#filter0_d_2_190)">
<circle cx="47.5" cy="32.5" r="32.5" fill="#F9C601"/>
</g>
<g clip-path="url(#clip0_2_190)">
<path d="M45.3633 26.2123V29.8485L45.6207 30.1059C45.703 30.1881 47.68 32.1211 51.5156 32.1211C55.3512 32.1211 57.3282 30.1881 57.4105 30.1059L57.668 29.8484V26.2122L59.4258 25.5091V30.3633H61.1836V24.8059L62.6712 24.2109L51.5156 19.7487L40.36 24.2109L45.3633 26.2123ZM55.9102 29.0747C55.3506 29.4926 53.8986 30.3633 51.5156 30.3633C49.1327 30.3633 47.6806 29.4926 47.1211 29.0747V26.9153L51.5156 28.6731L55.9102 26.9153V29.0747ZM57.9381 24.2109L51.5156 26.7799L45.0931 24.2109L51.5156 21.6419L57.9381 24.2109Z" fill="white"/>
<path d="M39.7738 25.6528L38.5308 24.4098L37.4063 25.5343C37.6013 22.3163 40.2807 19.7578 43.5469 19.7578V18C39.3044 18 35.8318 21.3572 35.6451 25.5545L34.5004 24.4098L33.2575 25.6528L36.5156 28.9109L39.7738 25.6528Z" fill="white"/>
<path d="M62.7425 38.5895L59.4843 35.3313L56.2262 38.5895L57.4691 39.8324L58.6054 38.6961V40.0899C58.6054 43.4823 55.8455 46.2422 52.4531 46.2422V48C56.8148 48 60.3633 44.4515 60.3633 40.0899V38.6961L61.4996 39.8325L62.7425 38.5895Z" fill="white"/>
<path d="M54.1523 42.668V37.1106L55.64 36.5156L44.4844 32.0533L33.3288 36.5156L38.332 38.5169V42.1532L38.5895 42.4106C38.6718 42.4928 40.6488 44.4258 44.4844 44.4258C48.32 44.4258 50.297 42.4928 50.3793 42.4106L50.6367 42.1531V38.5169L52.3945 37.8138V42.668H54.1523ZM48.8789 41.3794C48.3194 41.7973 46.8673 42.668 44.4844 42.668C42.1014 42.668 40.6494 41.7973 40.0898 41.3794V39.22L44.4844 40.9778L48.8789 39.22V41.3794ZM44.4844 39.0846L38.0619 36.5156L44.4844 33.9466L50.9069 36.5156L44.4844 39.0846Z" fill="white"/>
</g>
<defs>
<filter id="filter0_d_2_190" x="0" y="0" width="95" height="100" filterUnits="userSpaceOnUse" color-interpolation-filters="sRGB">
<feFlood flood-opacity="0" result="BackgroundImageFix"/>
<feColorMatrix in="SourceAlpha" type="matrix" values="0 0 0 0 0 0 0 0 0 0 0 0 0 0 0 0 0 0 127 0" result="hardAlpha"/>
<feMorphology radius="20" operator="erode" in="SourceAlpha" result="effect1_dropShadow_2_190"/>
<feOffset dy="20"/>
<feGaussianBlur stdDeviation="17.5"/>
<feColorMatrix type="matrix" values="0 0 0 0 0 0 0 0 0 0.751699 0 0 0 0 0.883333 0 0 0 0.4 0"/>
<feBlend mode="normal" in2="BackgroundImageFix" result="effect1_dropShadow_2_190"/>
<feBlend mode="normal" in="SourceGraphic" in2="effect1_dropShadow_2_190" result="shape"/>
</filter>
<clipPath id="clip0_2_190">
<rect width="30" height="30" fill="white" transform="translate(33 18)"/>
</clipPath>
</defs>
</svg>
