<svg width="320" height="127" viewBox="0 0 320 127" fill="none" xmlns="http://www.w3.org/2000/svg">
<path d="M314.554 63.5C314.554 68.825 310.499 74.0882 302.684 79.0194C294.906 83.927 283.602 88.3744 269.566 92.1203C241.505 99.6091 202.698 104.25 159.804 104.25C116.91 104.25 78.103 99.6091 50.0425 92.1203C36.0067 88.3744 24.7022 83.927 16.9244 79.0194C9.10918 74.0882 5.0542 68.825 5.0542 63.5C5.0542 58.175 9.10918 52.9118 16.9244 47.9806C24.7022 43.073 36.0067 38.6256 50.0425 34.8797C78.103 27.3909 116.91 22.75 159.804 22.75C202.698 22.75 241.505 27.3909 269.566 34.8797C283.602 38.6256 294.906 43.073 302.684 47.9806C310.499 52.9118 314.554 58.175 314.554 63.5Z" stroke="#FFCA00" stroke-width="1.5"/>
<path d="M313.001 85.3736C312.248 90.6451 307.49 95.2822 299.056 99.0593C290.663 102.818 278.843 105.623 264.419 107.347C235.582 110.795 196.508 109.904 154.045 103.841C111.581 97.7778 73.8199 87.6983 47.0996 76.3183C33.7343 70.6261 23.1719 64.6255 16.1658 58.6678C9.12611 52.6814 5.85579 46.8979 6.60846 41.6264C7.36114 36.3549 12.1193 31.7177 20.5531 27.9406C28.9465 24.1816 40.7662 21.3768 55.1905 19.6524C84.0278 16.2051 123.101 17.0961 165.565 23.1591C208.028 29.2221 245.79 39.3017 272.51 50.6816C285.875 56.3738 296.438 62.3744 303.444 68.3322C310.483 74.3185 313.754 80.1021 313.001 85.3736Z" stroke="#E52525" stroke-width="1.5"/>
<path d="M29.9442 58.68C29.9442 54.2 30.8242 50.2267 32.5842 46.76C34.3975 43.2933 36.8242 40.6267 39.8642 38.76C42.9575 36.8933 46.3975 35.96 50.1842 35.96C53.4909 35.96 56.3709 36.6267 58.8242 37.96C61.3309 39.2933 63.3309 40.9733 64.8242 43V36.68H76.1042V81H64.8242V74.52C63.3842 76.6 61.3842 78.3333 58.8242 79.72C56.3175 81.0533 53.4109 81.72 50.1042 81.72C46.3709 81.72 42.9575 80.76 39.8642 78.84C36.8242 76.92 34.3975 74.2267 32.5842 70.76C30.8242 67.24 29.9442 63.2133 29.9442 58.68ZM64.8242 58.84C64.8242 56.12 64.2909 53.8 63.2242 51.88C62.1575 49.9067 60.7175 48.4133 58.9042 47.4C57.0909 46.3333 55.1442 45.8 53.0642 45.8C50.9842 45.8 49.0642 46.3067 47.3042 47.32C45.5442 48.3333 44.1042 49.8267 42.9842 51.8C41.9175 53.72 41.3842 56.0133 41.3842 58.68C41.3842 61.3467 41.9175 63.6933 42.9842 65.72C44.1042 67.6933 45.5442 69.2133 47.3042 70.28C49.1175 71.3467 51.0375 71.88 53.0642 71.88C55.1442 71.88 57.0909 71.3733 58.9042 70.36C60.7175 69.2933 62.1575 67.8 63.2242 65.88C64.2909 63.9067 64.8242 61.56 64.8242 58.84Z" fill="#E52525"/>
<path d="M84.163 58.84C84.163 54.2533 85.0963 50.2533 86.963 46.84C88.8296 43.3733 91.4163 40.7067 94.723 38.84C98.0296 36.92 101.816 35.96 106.083 35.96C111.576 35.96 116.11 37.3467 119.683 40.12C123.31 42.84 125.736 46.68 126.963 51.64H114.883C114.243 49.72 113.15 48.2267 111.603 47.16C110.11 46.04 108.243 45.48 106.003 45.48C102.803 45.48 100.27 46.6533 98.403 49C96.5363 51.2933 95.603 54.5733 95.603 58.84C95.603 63.0533 96.5363 66.3333 98.403 68.68C100.27 70.9733 102.803 72.12 106.003 72.12C110.536 72.12 113.496 70.0933 114.883 66.04H126.963C125.736 70.84 123.31 74.6533 119.683 77.48C116.056 80.3067 111.523 81.72 106.083 81.72C101.816 81.72 98.0296 80.7867 94.723 78.92C91.4163 77 88.8296 74.3333 86.963 70.92C85.0963 67.4533 84.163 63.4267 84.163 58.84Z" fill="#E52525"/>
<path d="M132.288 58.84C132.288 54.2533 133.221 50.2533 135.088 46.84C136.955 43.3733 139.541 40.7067 142.848 38.84C146.155 36.92 149.941 35.96 154.208 35.96C159.701 35.96 164.235 37.3467 167.808 40.12C171.435 42.84 173.861 46.68 175.088 51.64H163.008C162.368 49.72 161.275 48.2267 159.728 47.16C158.235 46.04 156.368 45.48 154.128 45.48C150.928 45.48 148.395 46.6533 146.528 49C144.661 51.2933 143.728 54.5733 143.728 58.84C143.728 63.0533 144.661 66.3333 146.528 68.68C148.395 70.9733 150.928 72.12 154.128 72.12C158.661 72.12 161.621 70.0933 163.008 66.04H175.088C173.861 70.84 171.435 74.6533 167.808 77.48C164.181 80.3067 159.648 81.72 154.208 81.72C149.941 81.72 146.155 80.7867 142.848 78.92C139.541 77 136.955 74.3333 135.088 70.92C133.221 67.4533 132.288 63.4267 132.288 58.84Z" fill="#E52525"/>
<path d="M224.493 57.88C224.493 59.48 224.386 60.92 224.173 62.2H191.773C192.04 65.4 193.16 67.9067 195.133 69.72C197.106 71.5333 199.533 72.44 202.413 72.44C206.573 72.44 209.533 70.6533 211.293 67.08H223.373C222.093 71.3467 219.64 74.8667 216.013 77.64C212.386 80.36 207.933 81.72 202.653 81.72C198.386 81.72 194.546 80.7867 191.133 78.92C187.773 77 185.133 74.3067 183.213 70.84C181.346 67.3733 180.413 63.3733 180.413 58.84C180.413 54.2533 181.346 50.2267 183.213 46.76C185.08 43.2933 187.693 40.6267 191.053 38.76C194.413 36.8933 198.28 35.96 202.653 35.96C206.866 35.96 210.626 36.8667 213.933 38.68C217.293 40.4933 219.88 43.08 221.693 46.44C223.56 49.7467 224.493 53.56 224.493 57.88ZM212.893 54.68C212.84 51.8 211.8 49.5067 209.773 47.8C207.746 46.04 205.266 45.16 202.333 45.16C199.56 45.16 197.213 46.0133 195.293 47.72C193.426 49.3733 192.28 51.6933 191.853 54.68H212.893Z" fill="#E52525"/>
<path d="M249.628 81.72C246.001 81.72 242.748 81.08 239.868 79.8C236.988 78.4667 234.695 76.68 232.988 74.44C231.335 72.2 230.428 69.72 230.268 67H241.548C241.761 68.7067 242.588 70.12 244.028 71.24C245.521 72.36 247.361 72.92 249.548 72.92C251.681 72.92 253.335 72.4933 254.508 71.64C255.735 70.7867 256.348 69.6933 256.348 68.36C256.348 66.92 255.601 65.8533 254.108 65.16C252.668 64.4133 250.348 63.6133 247.148 62.76C243.841 61.96 241.121 61.1333 238.988 60.28C236.908 59.4267 235.095 58.12 233.548 56.36C232.055 54.6 231.308 52.2267 231.308 49.24C231.308 46.7867 232.001 44.5467 233.388 42.52C234.828 40.4933 236.855 38.8933 239.468 37.72C242.135 36.5467 245.255 35.96 248.828 35.96C254.108 35.96 258.321 37.2933 261.468 39.96C264.615 42.5733 266.348 46.12 266.668 50.6H255.948C255.788 48.84 255.041 47.4533 253.708 46.44C252.428 45.3733 250.695 44.84 248.508 44.84C246.481 44.84 244.908 45.2133 243.788 45.96C242.721 46.7067 242.188 47.7467 242.188 49.08C242.188 50.5733 242.935 51.72 244.428 52.52C245.921 53.2667 248.241 54.04 251.388 54.84C254.588 55.64 257.228 56.4667 259.308 57.32C261.388 58.1733 263.175 59.5067 264.668 61.32C266.215 63.08 267.015 65.4267 267.068 68.36C267.068 70.92 266.348 73.2133 264.908 75.24C263.521 77.2667 261.495 78.8667 258.828 80.04C256.215 81.16 253.148 81.72 249.628 81.72Z" fill="#E52525"/>
<path d="M293.222 81.72C289.595 81.72 286.342 81.08 283.462 79.8C280.582 78.4667 278.288 76.68 276.582 74.44C274.928 72.2 274.022 69.72 273.862 67H285.142C285.355 68.7067 286.182 70.12 287.622 71.24C289.115 72.36 290.955 72.92 293.142 72.92C295.275 72.92 296.928 72.4933 298.102 71.64C299.328 70.7867 299.942 69.6933 299.942 68.36C299.942 66.92 299.195 65.8533 297.702 65.16C296.262 64.4133 293.942 63.6133 290.742 62.76C287.435 61.96 284.715 61.1333 282.582 60.28C280.502 59.4267 278.688 58.12 277.142 56.36C275.648 54.6 274.902 52.2267 274.902 49.24C274.902 46.7867 275.595 44.5467 276.982 42.52C278.422 40.4933 280.448 38.8933 283.062 37.72C285.728 36.5467 288.848 35.96 292.422 35.96C297.702 35.96 301.915 37.2933 305.062 39.96C308.208 42.5733 309.942 46.12 310.262 50.6H299.542C299.382 48.84 298.635 47.4533 297.302 46.44C296.022 45.3733 294.288 44.84 292.102 44.84C290.075 44.84 288.502 45.2133 287.382 45.96C286.315 46.7067 285.782 47.7467 285.782 49.08C285.782 50.5733 286.528 51.72 288.022 52.52C289.515 53.2667 291.835 54.04 294.982 54.84C298.182 55.64 300.822 56.4667 302.902 57.32C304.982 58.1733 306.768 59.5067 308.262 61.32C309.808 63.08 310.608 65.4267 310.662 68.36C310.662 70.92 309.942 73.2133 308.502 75.24C307.115 77.2667 305.088 78.8667 302.422 80.04C299.808 81.16 296.742 81.72 293.222 81.72Z" fill="#E52525"/>
</svg>
