<svg width="109" height="101" viewBox="0 0 109 101" fill="none" xmlns="http://www.w3.org/2000/svg">
<path d="M57 55.5H86.5L106.5 22H77L57 55.5Z" stroke="#EBF2F3" stroke-width="2"/>
<path d="M82.5 13H56.5L33.6429 53L18.5 51.5L1 82H17.0714L6.5 100.5H32.5L82.5 13Z" fill="#EBF2F3"/>
<circle cx="45" cy="43" r="28" fill="#E52525"/>
<path d="M35 32.9997C26 32.4997 41.5 24 41.5 20.9997C41.5 15 23 29.9997 22.5 32.9997C22 35.9997 32.5 32.7362 29 39.4997C25.5 46.2632 32 46.4997 32 47.9997C31 56.9997 36.5 63.4997 38.5 60.4997C40.5 57.4997 33 53.9997 42.5 45.4997C52 36.9997 44 33.4997 35 32.9997Z" fill="white"/>
<path d="M38 64.4999C41.5 60.4999 54.5 59.9999 57 60.9999C59.5 61.9999 32 70.9999 38 64.4999Z" fill="white"/>
<path d="M62.5 40.0001C64.1 41.6001 63.1667 52.0001 62.5 57.0001C76.5 40.5002 64.5 32.0001 59 25.0001C54 18.6365 47 22.0001 51.5 25.0001C56 28.0001 56.5 22.0001 54 30.5001C51.5 39.0001 60.5 38.0001 62.5 40.0001Z" fill="white"/>
<path d="M78.5 23L85 11L91.5 23L85 33L78.5 23Z" fill="#FFAE2B"/>
<path d="M64 77L70.5 65L77 77L70.5 87L64 77Z" fill="#FF6351"/>
<path d="M24 43H0L11.234 24L24 43Z" fill="#01D8FD"/>
<path d="M24 0H8L15.4894 13L24 0Z" fill="#EBF2F3"/>
</svg>
