<svg width="57" height="56" viewBox="0 0 57 56" fill="none" xmlns="http://www.w3.org/2000/svg">
<path d="M13.4606 43.6594L33.7767 41.9388C48.5467 40.688 54.9155 22.6957 44.2826 12.2587C33.6497 1.82173 15.779 8.52402 14.803 23.3148L13.4606 43.6594Z" fill="#EBF2F3"/>
<path d="M28.75 30.3313V37.25C28.75 37.913 29.0134 38.5489 29.4822 39.0178C29.9511 39.4866 30.587 39.75 31.25 39.75H38.75V42.25H31.25C29.9239 42.25 28.6521 41.7232 27.7145 40.7855C26.7768 39.8479 26.25 38.5761 26.25 37.25V24.75H28.75V26C28.75 26.663 29.0134 27.2989 29.4822 27.7678C29.9511 28.2366 30.587 28.5 31.25 28.5H38.75V31H31.25C30.3723 31.0014 29.5098 30.7707 28.75 30.3313Z" fill="#FF6351"/>
<path d="M42.5 43.5C43.163 43.5 43.7989 43.2366 44.2678 42.7678C44.7366 42.2989 45 41.663 45 41C45 40.337 44.7366 39.7011 44.2678 39.2322C43.7989 38.7634 43.163 38.5 42.5 38.5C41.837 38.5 41.2011 38.7634 40.7322 39.2322C40.2634 39.7011 40 40.337 40 41C40 41.663 40.2634 42.2989 40.7322 42.7678C41.2011 43.2366 41.837 43.5 42.5 43.5ZM42.5 46C41.1739 46 39.9021 45.4732 38.9645 44.5355C38.0268 43.5979 37.5 42.3261 37.5 41C37.5 39.6739 38.0268 38.4021 38.9645 37.4645C39.9021 36.5268 41.1739 36 42.5 36C43.8261 36 45.0979 36.5268 46.0355 37.4645C46.9732 38.4021 47.5 39.6739 47.5 41C47.5 42.3261 46.9732 43.5979 46.0355 44.5355C45.0979 45.4732 43.8261 46 42.5 46Z" fill="#111111"/>
<path d="M42.5 32.25C43.163 32.25 43.7989 31.9866 44.2678 31.5178C44.7366 31.0489 45 30.413 45 29.75C45 29.087 44.7366 28.4511 44.2678 27.9822C43.7989 27.5134 43.163 27.25 42.5 27.25C41.837 27.25 41.2011 27.5134 40.7322 27.9822C40.2634 28.4511 40 29.087 40 29.75C40 30.413 40.2634 31.0489 40.7322 31.5178C41.2011 31.9866 41.837 32.25 42.5 32.25ZM42.5 34.75C41.1739 34.75 39.9021 34.2232 38.9645 33.2855C38.0268 32.3479 37.5 31.0761 37.5 29.75C37.5 28.4239 38.0268 27.1521 38.9645 26.2145C39.9021 25.2768 41.1739 24.75 42.5 24.75C43.8261 24.75 45.0979 25.2768 46.0355 26.2145C46.9732 27.1521 47.5 28.4239 47.5 29.75C47.5 31.0761 46.9732 32.3479 46.0355 33.2855C45.0979 34.2232 43.8261 34.75 42.5 34.75Z" fill="#111111"/>
<path d="M27.5 24.75C28.163 24.75 28.7989 24.4866 29.2678 24.0178C29.7366 23.5489 30 22.913 30 22.25C30 21.587 29.7366 20.9511 29.2678 20.4822C28.7989 20.0134 28.163 19.75 27.5 19.75C26.837 19.75 26.2011 20.0134 25.7322 20.4822C25.2634 20.9511 25 21.587 25 22.25C25 22.913 25.2634 23.5489 25.7322 24.0178C26.2011 24.4866 26.837 24.75 27.5 24.75ZM27.5 27.25C26.1739 27.25 24.9021 26.7232 23.9645 25.7855C23.0268 24.8479 22.5 23.5761 22.5 22.25C22.5 20.9239 23.0268 19.6521 23.9645 18.7145C24.9021 17.7768 26.1739 17.25 27.5 17.25C28.8261 17.25 30.0979 17.7768 31.0355 18.7145C31.9732 19.6521 32.5 20.9239 32.5 22.25C32.5 23.5761 31.9732 24.8479 31.0355 25.7855C30.0979 26.7232 28.8261 27.25 27.5 27.25Z" fill="#111111"/>
</svg>
