<svg width="136" height="43" viewBox="0 0 136 43" fill="none" xmlns="http://www.w3.org/2000/svg">
<rect y="7.5" width="30" height="28" fill="#E52525"/>
<path d="M7 19.5C7 21.3565 7.7375 23.137 9.05025 24.4497C10.363 25.7625 12.1435 26.5 14 26.5C15.8565 26.5 17.637 25.7625 18.9497 24.4497C20.2625 23.137 21 21.3565 21 19.5L14 19.5L7 19.5Z" fill="white"/>
<path d="M43.036 21.728C43.036 19.824 43.4747 18.116 44.352 16.604C45.248 15.092 46.452 13.916 47.964 13.076C49.4947 12.2173 51.1653 11.788 52.976 11.788C55.048 11.788 56.8867 12.3013 58.492 13.328C60.116 14.336 61.292 15.7733 62.02 17.64H58.184C57.68 16.6133 56.98 15.848 56.084 15.344C55.188 14.84 54.152 14.588 52.976 14.588C51.688 14.588 50.54 14.8773 49.532 15.456C48.524 16.0347 47.7307 16.8653 47.152 17.948C46.592 19.0307 46.312 20.2907 46.312 21.728C46.312 23.1653 46.592 24.4253 47.152 25.508C47.7307 26.5907 48.524 27.4307 49.532 28.028C50.54 28.6067 51.688 28.896 52.976 28.896C54.152 28.896 55.188 28.644 56.084 28.14C56.98 27.636 57.68 26.8707 58.184 25.844H62.02C61.292 27.7107 60.116 29.148 58.492 30.156C56.8867 31.164 55.048 31.668 52.976 31.668C51.1467 31.668 49.476 31.248 47.964 30.408C46.452 29.5493 45.248 28.364 44.352 26.852C43.4747 25.34 43.036 23.632 43.036 21.728ZM72.4483 31.752C70.9923 31.752 69.6763 31.4253 68.5003 30.772C67.3243 30.1 66.4003 29.1667 65.7283 27.972C65.0563 26.7587 64.7203 25.3587 64.7203 23.772C64.7203 22.204 65.0656 20.8133 65.7563 19.6C66.4469 18.3867 67.3896 17.4533 68.5843 16.8C69.7789 16.1467 71.1136 15.82 72.5883 15.82C74.0629 15.82 75.3976 16.1467 76.5923 16.8C77.7869 17.4533 78.7296 18.3867 79.4203 19.6C80.1109 20.8133 80.4563 22.204 80.4563 23.772C80.4563 25.34 80.1016 26.7307 79.3923 27.944C78.6829 29.1573 77.7123 30.1 76.4803 30.772C75.2669 31.4253 73.9229 31.752 72.4483 31.752ZM72.4483 28.98C73.2696 28.98 74.0349 28.784 74.7443 28.392C75.4723 28 76.0603 27.412 76.5083 26.628C76.9563 25.844 77.1803 24.892 77.1803 23.772C77.1803 22.652 76.9656 21.7093 76.5363 20.944C76.1069 20.16 75.5376 19.572 74.8283 19.18C74.1189 18.788 73.3536 18.592 72.5323 18.592C71.7109 18.592 70.9456 18.788 70.2363 19.18C69.5456 19.572 68.9949 20.16 68.5843 20.944C68.1736 21.7093 67.9683 22.652 67.9683 23.772C67.9683 25.4333 68.3883 26.7213 69.2283 27.636C70.0869 28.532 71.1603 28.98 72.4483 28.98ZM82.5477 23.716C82.5477 22.1667 82.8651 20.7947 83.4997 19.6C84.1531 18.4053 85.0304 17.4813 86.1317 16.828C87.2517 16.156 88.4931 15.82 89.8557 15.82C90.8637 15.82 91.8531 16.044 92.8237 16.492C93.8131 16.9213 94.5971 17.5 95.1757 18.228V10.78H98.3957V31.5H95.1757V29.176C94.6531 29.9227 93.9251 30.5387 92.9917 31.024C92.0771 31.5093 91.0224 31.752 89.8277 31.752C88.4837 31.752 87.2517 31.416 86.1317 30.744C85.0304 30.0533 84.1531 29.1013 83.4997 27.888C82.8651 26.656 82.5477 25.2653 82.5477 23.716ZM95.1757 23.772C95.1757 22.708 94.9517 21.784 94.5037 21C94.0744 20.216 93.5051 19.6187 92.7957 19.208C92.0864 18.7973 91.3211 18.592 90.4997 18.592C89.6784 18.592 88.9131 18.7973 88.2037 19.208C87.4944 19.6 86.9157 20.188 86.4677 20.972C86.0384 21.7373 85.8237 22.652 85.8237 23.716C85.8237 24.78 86.0384 25.7133 86.4677 26.516C86.9157 27.3187 87.4944 27.9347 88.2037 28.364C88.9317 28.7747 89.6971 28.98 90.4997 28.98C91.3211 28.98 92.0864 28.7747 92.7957 28.364C93.5051 27.9533 94.0744 27.356 94.5037 26.572C94.9517 25.7693 95.1757 24.836 95.1757 23.772ZM116.728 23.408C116.728 23.9867 116.691 24.5093 116.616 24.976H104.828C104.922 26.208 105.379 27.1973 106.2 27.944C107.022 28.6907 108.03 29.064 109.224 29.064C110.942 29.064 112.155 28.3453 112.864 26.908H116.308C115.842 28.3267 114.992 29.4933 113.76 30.408C112.547 31.304 111.035 31.752 109.224 31.752C107.75 31.752 106.424 31.4253 105.248 30.772C104.091 30.1 103.176 29.1667 102.504 27.972C101.851 26.7587 101.524 25.3587 101.524 23.772C101.524 22.1853 101.842 20.7947 102.476 19.6C103.13 18.3867 104.035 17.4533 105.192 16.8C106.368 16.1467 107.712 15.82 109.224 15.82C110.68 15.82 111.978 16.1373 113.116 16.772C114.255 17.4067 115.142 18.3027 115.776 19.46C116.411 20.5987 116.728 21.9147 116.728 23.408ZM113.396 22.4C113.378 21.224 112.958 20.2813 112.136 19.572C111.315 18.8627 110.298 18.508 109.084 18.508C107.983 18.508 107.04 18.8627 106.256 19.572C105.472 20.2627 105.006 21.2053 104.856 22.4H113.396ZM123.062 18.312C123.528 17.528 124.144 16.9213 124.91 16.492C125.694 16.044 126.618 15.82 127.682 15.82V19.124H126.87C125.619 19.124 124.667 19.4413 124.014 20.076C123.379 20.7107 123.062 21.812 123.062 23.38V31.5H119.87V16.072H123.062V18.312ZM131.904 31.696C131.325 31.696 130.84 31.5 130.448 31.108C130.056 30.716 129.86 30.2307 129.86 29.652C129.86 29.0733 130.056 28.588 130.448 28.196C130.84 27.804 131.325 27.608 131.904 27.608C132.464 27.608 132.94 27.804 133.332 28.196C133.724 28.588 133.92 29.0733 133.92 29.652C133.92 30.2307 133.724 30.716 133.332 31.108C132.94 31.5 132.464 31.696 131.904 31.696Z" fill="#0F1422"/>
</svg>
